<mxfile host="app.diagrams.net" agent="Mozilla/5.0 (Windows NT 10.0; Win64; x64) AppleWebKit/537.36 (KHTML, like Gecko) Chrome/134.0.0.0 Safari/537.36 Edg/134.0.0.0" version="26.1.1">
  <diagram name="Página-1" id="zDNkPW191T4x59ADZeNL">
    <mxGraphModel dx="890" dy="444" grid="1" gridSize="10" guides="1" tooltips="1" connect="1" arrows="1" fold="1" page="1" pageScale="1" pageWidth="827" pageHeight="1169" math="0" shadow="0">
      <root>
        <mxCell id="0" />
        <mxCell id="1" parent="0" />
        <mxCell id="qzNyG73ixvhfhglO-ilW-2" value="" style="swimlane;startSize=0;" parent="1" vertex="1">
          <mxGeometry x="200" y="80" width="880" height="930" as="geometry">
            <mxRectangle x="200" y="80" width="50" height="40" as="alternateBounds" />
          </mxGeometry>
        </mxCell>
        <mxCell id="qzNyG73ixvhfhglO-ilW-12" value="Iniciar partida" style="ellipse;whiteSpace=wrap;html=1;" parent="qzNyG73ixvhfhglO-ilW-2" vertex="1">
          <mxGeometry x="290" y="50" width="140" height="70" as="geometry" />
        </mxCell>
        <mxCell id="qzNyG73ixvhfhglO-ilW-4" value="Sistema de Jogo de Xadrez" style="text;html=1;align=center;verticalAlign=middle;resizable=0;points=[];autosize=1;strokeColor=none;fillColor=none;" parent="qzNyG73ixvhfhglO-ilW-2" vertex="1">
          <mxGeometry x="355" y="8" width="170" height="30" as="geometry" />
        </mxCell>
        <mxCell id="qzNyG73ixvhfhglO-ilW-13" value="Realizar en passant" style="ellipse;whiteSpace=wrap;html=1;" parent="qzNyG73ixvhfhglO-ilW-2" vertex="1">
          <mxGeometry x="73" y="100" width="140" height="70" as="geometry" />
        </mxCell>
        <mxCell id="daoPPE_rz8Ac2sAp1PtJ-12" value="&amp;lt;&amp;lt;include&amp;gt;&amp;gt;" style="endArrow=open;endSize=12;dashed=1;html=1;rounded=0;entryX=0;entryY=0;entryDx=0;entryDy=0;exitX=1;exitY=0.5;exitDx=0;exitDy=0;" parent="qzNyG73ixvhfhglO-ilW-2" source="qzNyG73ixvhfhglO-ilW-13" target="qzNyG73ixvhfhglO-ilW-17" edge="1">
          <mxGeometry width="160" relative="1" as="geometry">
            <mxPoint x="379.99747468306145" y="730.5012626584692" as="sourcePoint" />
            <mxPoint x="491.0025253169417" y="639.9987373415292" as="targetPoint" />
            <Array as="points" />
          </mxGeometry>
        </mxCell>
        <mxCell id="qzNyG73ixvhfhglO-ilW-17" value="Mover peão" style="ellipse;whiteSpace=wrap;html=1;" parent="qzNyG73ixvhfhglO-ilW-2" vertex="1">
          <mxGeometry x="370" y="220" width="140" height="70" as="geometry" />
        </mxCell>
        <mxCell id="qzNyG73ixvhfhglO-ilW-18" value="Realizar xeque-mate" style="ellipse;whiteSpace=wrap;html=1;" parent="qzNyG73ixvhfhglO-ilW-2" vertex="1">
          <mxGeometry x="20" y="670" width="140" height="70" as="geometry" />
        </mxCell>
        <mxCell id="qzNyG73ixvhfhglO-ilW-37" value="Mover peça" style="ellipse;whiteSpace=wrap;html=1;" parent="qzNyG73ixvhfhglO-ilW-2" vertex="1">
          <mxGeometry x="73" y="320" width="140" height="70" as="geometry" />
        </mxCell>
        <mxCell id="qzNyG73ixvhfhglO-ilW-55" value="Eliminar Peça" style="ellipse;whiteSpace=wrap;html=1;" parent="qzNyG73ixvhfhglO-ilW-2" vertex="1">
          <mxGeometry x="40" y="570" width="140" height="70" as="geometry" />
        </mxCell>
        <mxCell id="qzNyG73ixvhfhglO-ilW-58" value="&amp;lt;&amp;lt;include&amp;gt;&amp;gt;" style="endArrow=open;endSize=12;dashed=1;html=1;rounded=0;entryX=1;entryY=1;entryDx=0;entryDy=0;exitX=0.5;exitY=0;exitDx=0;exitDy=0;" parent="qzNyG73ixvhfhglO-ilW-2" source="daoPPE_rz8Ac2sAp1PtJ-15" target="daoPPE_rz8Ac2sAp1PtJ-2" edge="1">
          <mxGeometry width="160" relative="1" as="geometry">
            <mxPoint x="639.9974746830615" y="910.5012626584692" as="sourcePoint" />
            <mxPoint x="751.0025253169417" y="819.9987373415292" as="targetPoint" />
            <Array as="points">
              <mxPoint x="580" y="530" />
            </Array>
          </mxGeometry>
        </mxCell>
        <mxCell id="daoPPE_rz8Ac2sAp1PtJ-2" value="Mover torre" style="ellipse;whiteSpace=wrap;html=1;" parent="qzNyG73ixvhfhglO-ilW-2" vertex="1">
          <mxGeometry x="370" y="310" width="140" height="70" as="geometry" />
        </mxCell>
        <mxCell id="daoPPE_rz8Ac2sAp1PtJ-3" value="Mover cavalo" style="ellipse;whiteSpace=wrap;html=1;" parent="qzNyG73ixvhfhglO-ilW-2" vertex="1">
          <mxGeometry x="370" y="390" width="140" height="70" as="geometry" />
        </mxCell>
        <mxCell id="daoPPE_rz8Ac2sAp1PtJ-4" value="Mover bispo" style="ellipse;whiteSpace=wrap;html=1;" parent="qzNyG73ixvhfhglO-ilW-2" vertex="1">
          <mxGeometry x="370" y="470" width="140" height="70" as="geometry" />
        </mxCell>
        <mxCell id="daoPPE_rz8Ac2sAp1PtJ-5" value="Mover rainha" style="ellipse;whiteSpace=wrap;html=1;" parent="qzNyG73ixvhfhglO-ilW-2" vertex="1">
          <mxGeometry x="370" y="549.5" width="140" height="70" as="geometry" />
        </mxCell>
        <mxCell id="daoPPE_rz8Ac2sAp1PtJ-6" value="Mover rei" style="ellipse;whiteSpace=wrap;html=1;" parent="qzNyG73ixvhfhglO-ilW-2" vertex="1">
          <mxGeometry x="370" y="630" width="140" height="70" as="geometry" />
        </mxCell>
        <mxCell id="daoPPE_rz8Ac2sAp1PtJ-14" value="&amp;lt;&amp;lt;include&amp;gt;&amp;gt;" style="endArrow=open;endSize=12;dashed=1;html=1;rounded=0;entryX=0.314;entryY=0.919;entryDx=0;entryDy=0;exitX=0.5;exitY=0;exitDx=0;exitDy=0;entryPerimeter=0;" parent="qzNyG73ixvhfhglO-ilW-2" source="qzNyG73ixvhfhglO-ilW-55" target="qzNyG73ixvhfhglO-ilW-37" edge="1">
          <mxGeometry width="160" relative="1" as="geometry">
            <mxPoint x="190" y="500" as="sourcePoint" />
            <mxPoint x="190" y="570" as="targetPoint" />
            <Array as="points" />
          </mxGeometry>
        </mxCell>
        <mxCell id="daoPPE_rz8Ac2sAp1PtJ-15" value="Realizar roque" style="ellipse;whiteSpace=wrap;html=1;" parent="qzNyG73ixvhfhglO-ilW-2" vertex="1">
          <mxGeometry x="520" y="730" width="140" height="70" as="geometry" />
        </mxCell>
        <mxCell id="daoPPE_rz8Ac2sAp1PtJ-16" value="&amp;lt;&amp;lt;include&amp;gt;&amp;gt;" style="endArrow=open;endSize=12;dashed=1;html=1;rounded=0;entryX=1;entryY=1;entryDx=0;entryDy=0;exitX=0;exitY=0;exitDx=0;exitDy=0;" parent="qzNyG73ixvhfhglO-ilW-2" source="daoPPE_rz8Ac2sAp1PtJ-15" target="daoPPE_rz8Ac2sAp1PtJ-6" edge="1">
          <mxGeometry width="160" relative="1" as="geometry">
            <mxPoint x="360" y="825" as="sourcePoint" />
            <mxPoint x="538" y="840" as="targetPoint" />
            <Array as="points" />
          </mxGeometry>
        </mxCell>
        <mxCell id="daoPPE_rz8Ac2sAp1PtJ-17" value="Terminar partida" style="ellipse;whiteSpace=wrap;html=1;" parent="qzNyG73ixvhfhglO-ilW-2" vertex="1">
          <mxGeometry x="580" y="290" width="140" height="70" as="geometry" />
        </mxCell>
        <mxCell id="daoPPE_rz8Ac2sAp1PtJ-20" value="Verificar movimento válido" style="ellipse;whiteSpace=wrap;html=1;" parent="qzNyG73ixvhfhglO-ilW-2" vertex="1">
          <mxGeometry x="520" y="830" width="140" height="70" as="geometry" />
        </mxCell>
        <mxCell id="daoPPE_rz8Ac2sAp1PtJ-21" value="&amp;lt;&amp;lt;include&amp;gt;&amp;gt;" style="endArrow=open;endSize=12;dashed=1;html=1;rounded=0;exitX=0.607;exitY=1.033;exitDx=0;exitDy=0;exitPerimeter=0;entryX=0;entryY=0;entryDx=0;entryDy=0;" parent="qzNyG73ixvhfhglO-ilW-2" source="qzNyG73ixvhfhglO-ilW-37" target="daoPPE_rz8Ac2sAp1PtJ-20" edge="1">
          <mxGeometry width="160" relative="1" as="geometry">
            <mxPoint x="355" y="935" as="sourcePoint" />
            <mxPoint x="388" y="740" as="targetPoint" />
            <Array as="points">
              <mxPoint x="310" y="670" />
            </Array>
          </mxGeometry>
        </mxCell>
        <mxCell id="daoPPE_rz8Ac2sAp1PtJ-23" value="&amp;lt;&amp;lt;include&amp;gt;&amp;gt;" style="endArrow=open;endSize=12;dashed=1;html=1;rounded=0;entryX=0.5;entryY=1;entryDx=0;entryDy=0;exitX=0.981;exitY=0.274;exitDx=0;exitDy=0;exitPerimeter=0;" parent="qzNyG73ixvhfhglO-ilW-2" source="qzNyG73ixvhfhglO-ilW-18" target="qzNyG73ixvhfhglO-ilW-37" edge="1">
          <mxGeometry width="160" relative="1" as="geometry">
            <mxPoint x="214" y="800" as="sourcePoint" />
            <mxPoint x="247" y="605" as="targetPoint" />
            <Array as="points">
              <mxPoint x="220" y="680" />
              <mxPoint x="180" y="530" />
            </Array>
          </mxGeometry>
        </mxCell>
        <mxCell id="daoPPE_rz8Ac2sAp1PtJ-26" value="Promover peça" style="ellipse;whiteSpace=wrap;html=1;" parent="qzNyG73ixvhfhglO-ilW-2" vertex="1">
          <mxGeometry x="74" y="200" width="140" height="70" as="geometry" />
        </mxCell>
        <mxCell id="daoPPE_rz8Ac2sAp1PtJ-27" value="&amp;lt;&amp;lt;include&amp;gt;&amp;gt;" style="endArrow=open;endSize=12;dashed=1;html=1;rounded=0;entryX=0.042;entryY=0.298;entryDx=0;entryDy=0;exitX=1;exitY=0.5;exitDx=0;exitDy=0;entryPerimeter=0;" parent="qzNyG73ixvhfhglO-ilW-2" source="daoPPE_rz8Ac2sAp1PtJ-26" target="qzNyG73ixvhfhglO-ilW-17" edge="1">
          <mxGeometry width="160" relative="1" as="geometry">
            <mxPoint x="223" y="145" as="sourcePoint" />
            <mxPoint x="401" y="240" as="targetPoint" />
            <Array as="points" />
          </mxGeometry>
        </mxCell>
        <mxCell id="DJht6jUn4mT10fJ4DEAq-1" value="&lt;div&gt;&lt;br&gt;&lt;/div&gt;&lt;div&gt;&lt;br&gt;&lt;/div&gt;" style="endArrow=block;endSize=16;endFill=0;html=1;rounded=0;exitX=0;exitY=0.5;exitDx=0;exitDy=0;entryX=0.716;entryY=0.058;entryDx=0;entryDy=0;entryPerimeter=0;" edge="1" parent="qzNyG73ixvhfhglO-ilW-2" source="qzNyG73ixvhfhglO-ilW-17" target="qzNyG73ixvhfhglO-ilW-37">
          <mxGeometry width="160" relative="1" as="geometry">
            <mxPoint x="100" y="290" as="sourcePoint" />
            <mxPoint x="260" y="290" as="targetPoint" />
          </mxGeometry>
        </mxCell>
        <mxCell id="DJht6jUn4mT10fJ4DEAq-2" value="&lt;div&gt;&lt;br&gt;&lt;/div&gt;&lt;div&gt;&lt;br&gt;&lt;/div&gt;" style="endArrow=block;endSize=16;endFill=0;html=1;rounded=0;exitX=0;exitY=0.5;exitDx=0;exitDy=0;entryX=0.957;entryY=0.3;entryDx=0;entryDy=0;entryPerimeter=0;" edge="1" parent="qzNyG73ixvhfhglO-ilW-2" source="daoPPE_rz8Ac2sAp1PtJ-2" target="qzNyG73ixvhfhglO-ilW-37">
          <mxGeometry width="160" relative="1" as="geometry">
            <mxPoint x="386" y="299" as="sourcePoint" />
            <mxPoint x="210" y="341" as="targetPoint" />
          </mxGeometry>
        </mxCell>
        <mxCell id="DJht6jUn4mT10fJ4DEAq-4" value="&lt;div&gt;&lt;br&gt;&lt;/div&gt;&lt;div&gt;&lt;br&gt;&lt;/div&gt;" style="endArrow=block;endSize=16;endFill=0;html=1;rounded=0;entryX=1;entryY=0.5;entryDx=0;entryDy=0;exitX=0;exitY=0.5;exitDx=0;exitDy=0;" edge="1" parent="qzNyG73ixvhfhglO-ilW-2" source="daoPPE_rz8Ac2sAp1PtJ-3" target="qzNyG73ixvhfhglO-ilW-37">
          <mxGeometry width="160" relative="1" as="geometry">
            <mxPoint x="379.87716486490984" y="405.0630739977713" as="sourcePoint" />
            <mxPoint x="214.00000000000003" y="360" as="targetPoint" />
          </mxGeometry>
        </mxCell>
        <mxCell id="DJht6jUn4mT10fJ4DEAq-5" value="&lt;div&gt;&lt;br&gt;&lt;/div&gt;&lt;div&gt;&lt;br&gt;&lt;/div&gt;" style="endArrow=block;endSize=16;endFill=0;html=1;rounded=0;entryX=0.955;entryY=0.7;entryDx=0;entryDy=0;exitX=0;exitY=0.5;exitDx=0;exitDy=0;entryPerimeter=0;" edge="1" parent="qzNyG73ixvhfhglO-ilW-2" source="daoPPE_rz8Ac2sAp1PtJ-4" target="qzNyG73ixvhfhglO-ilW-37">
          <mxGeometry width="160" relative="1" as="geometry">
            <mxPoint x="380" y="435" as="sourcePoint" />
            <mxPoint x="221" y="371" as="targetPoint" />
          </mxGeometry>
        </mxCell>
        <mxCell id="DJht6jUn4mT10fJ4DEAq-6" value="&lt;div&gt;&lt;br&gt;&lt;/div&gt;&lt;div&gt;&lt;br&gt;&lt;/div&gt;" style="endArrow=block;endSize=16;endFill=0;html=1;rounded=0;entryX=0.698;entryY=0.956;entryDx=0;entryDy=0;exitX=0.055;exitY=0.23;exitDx=0;exitDy=0;entryPerimeter=0;exitPerimeter=0;" edge="1" parent="qzNyG73ixvhfhglO-ilW-2" source="daoPPE_rz8Ac2sAp1PtJ-5">
          <mxGeometry width="160" relative="1" as="geometry">
            <mxPoint x="396.98" y="562.88" as="sourcePoint" />
            <mxPoint x="190.00000000000003" y="379.99999999999994" as="targetPoint" />
          </mxGeometry>
        </mxCell>
        <mxCell id="DJht6jUn4mT10fJ4DEAq-7" value="&lt;div&gt;&lt;br&gt;&lt;/div&gt;&lt;div&gt;&lt;br&gt;&lt;/div&gt;" style="endArrow=block;endSize=16;endFill=0;html=1;rounded=0;exitX=0.045;exitY=0.292;exitDx=0;exitDy=0;exitPerimeter=0;entryX=0.699;entryY=0.943;entryDx=0;entryDy=0;entryPerimeter=0;" edge="1" parent="qzNyG73ixvhfhglO-ilW-2" source="daoPPE_rz8Ac2sAp1PtJ-6" target="qzNyG73ixvhfhglO-ilW-37">
          <mxGeometry width="160" relative="1" as="geometry">
            <mxPoint x="357" y="630" as="sourcePoint" />
            <mxPoint x="170" y="390" as="targetPoint" />
          </mxGeometry>
        </mxCell>
        <mxCell id="qzNyG73ixvhfhglO-ilW-78" value="" style="endArrow=none;endSize=16;endFill=0;html=1;rounded=0;entryX=1;entryY=0.5;entryDx=0;entryDy=0;exitX=0;exitY=0.3333333333333333;exitDx=0;exitDy=0;exitPerimeter=0;startFill=0;" parent="1" source="daoPPE_rz8Ac2sAp1PtJ-25" target="qzNyG73ixvhfhglO-ilW-12" edge="1">
          <mxGeometry width="160" relative="1" as="geometry">
            <mxPoint x="1155" y="279.9999999999999" as="sourcePoint" />
            <mxPoint x="860" y="205.0000000000001" as="targetPoint" />
            <Array as="points" />
          </mxGeometry>
        </mxCell>
        <mxCell id="qzNyG73ixvhfhglO-ilW-82" value="" style="endArrow=none;endSize=16;endFill=0;html=1;rounded=0;entryX=1;entryY=0.3333333333333333;entryDx=0;entryDy=0;exitX=0;exitY=0.5;exitDx=0;exitDy=0;startFill=0;entryPerimeter=0;" parent="1" source="qzNyG73ixvhfhglO-ilW-12" target="daoPPE_rz8Ac2sAp1PtJ-24" edge="1">
          <mxGeometry width="160" relative="1" as="geometry">
            <mxPoint x="413" y="163" as="sourcePoint" />
            <mxPoint x="95" y="279.9999999999999" as="targetPoint" />
            <Array as="points">
              <mxPoint x="230" y="140" />
            </Array>
          </mxGeometry>
        </mxCell>
        <mxCell id="qzNyG73ixvhfhglO-ilW-83" value="" style="endArrow=none;endSize=16;endFill=0;html=1;rounded=0;exitX=0;exitY=0.5;exitDx=0;exitDy=0;startFill=0;" parent="1" source="qzNyG73ixvhfhglO-ilW-13" target="daoPPE_rz8Ac2sAp1PtJ-24" edge="1">
          <mxGeometry width="160" relative="1" as="geometry">
            <mxPoint x="500" y="175" as="sourcePoint" />
            <mxPoint x="105" y="290" as="targetPoint" />
            <Array as="points">
              <mxPoint x="230" y="210" />
            </Array>
          </mxGeometry>
        </mxCell>
        <mxCell id="qzNyG73ixvhfhglO-ilW-85" value="" style="endArrow=none;endSize=16;endFill=0;html=1;rounded=0;exitX=0;exitY=0;exitDx=0;exitDy=0;startFill=0;entryX=1;entryY=0.3333333333333333;entryDx=0;entryDy=0;entryPerimeter=0;" parent="1" source="qzNyG73ixvhfhglO-ilW-37" target="daoPPE_rz8Ac2sAp1PtJ-24" edge="1">
          <mxGeometry width="160" relative="1" as="geometry">
            <mxPoint x="283" y="225" as="sourcePoint" />
            <mxPoint x="95" y="310" as="targetPoint" />
            <Array as="points">
              <mxPoint x="220" y="300" />
            </Array>
          </mxGeometry>
        </mxCell>
        <mxCell id="qzNyG73ixvhfhglO-ilW-86" value="" style="endArrow=none;endSize=16;endFill=0;html=1;rounded=0;entryX=1;entryY=0.3333333333333333;entryDx=0;entryDy=0;startFill=0;entryPerimeter=0;" parent="1" source="qzNyG73ixvhfhglO-ilW-55" target="daoPPE_rz8Ac2sAp1PtJ-24" edge="1">
          <mxGeometry width="160" relative="1" as="geometry">
            <mxPoint x="293" y="235" as="sourcePoint" />
            <mxPoint x="95" y="310" as="targetPoint" />
            <Array as="points" />
          </mxGeometry>
        </mxCell>
        <mxCell id="daoPPE_rz8Ac2sAp1PtJ-18" value="" style="endArrow=none;endSize=16;endFill=0;html=1;rounded=0;entryX=1;entryY=0.5;entryDx=0;entryDy=0;exitX=0;exitY=0.3333333333333333;exitDx=0;exitDy=0;exitPerimeter=0;startFill=0;" parent="1" source="daoPPE_rz8Ac2sAp1PtJ-25" target="daoPPE_rz8Ac2sAp1PtJ-17" edge="1">
          <mxGeometry width="160" relative="1" as="geometry">
            <mxPoint x="1140" y="300" as="sourcePoint" />
            <mxPoint x="870" y="430" as="targetPoint" />
            <Array as="points" />
          </mxGeometry>
        </mxCell>
        <mxCell id="daoPPE_rz8Ac2sAp1PtJ-19" value="" style="endArrow=none;endSize=16;endFill=0;html=1;rounded=0;entryX=1;entryY=0.3333333333333333;entryDx=0;entryDy=0;startFill=0;entryPerimeter=0;exitX=0;exitY=0;exitDx=0;exitDy=0;" parent="1" source="qzNyG73ixvhfhglO-ilW-18" target="daoPPE_rz8Ac2sAp1PtJ-24" edge="1">
          <mxGeometry width="160" relative="1" as="geometry">
            <mxPoint x="300" y="602.5" as="sourcePoint" />
            <mxPoint x="110" y="340" as="targetPoint" />
            <Array as="points" />
          </mxGeometry>
        </mxCell>
        <mxCell id="daoPPE_rz8Ac2sAp1PtJ-22" value="" style="endArrow=none;endSize=16;endFill=0;html=1;rounded=0;entryX=1;entryY=0;entryDx=0;entryDy=0;exitX=0;exitY=0.3333333333333333;exitDx=0;exitDy=0;exitPerimeter=0;startFill=0;" parent="1" source="daoPPE_rz8Ac2sAp1PtJ-25" target="daoPPE_rz8Ac2sAp1PtJ-20" edge="1">
          <mxGeometry width="160" relative="1" as="geometry">
            <mxPoint x="1155" y="310" as="sourcePoint" />
            <mxPoint x="920" y="700" as="targetPoint" />
            <Array as="points" />
          </mxGeometry>
        </mxCell>
        <mxCell id="daoPPE_rz8Ac2sAp1PtJ-24" value="Jogador" style="shape=umlActor;verticalLabelPosition=bottom;verticalAlign=top;html=1;outlineConnect=0;" parent="1" vertex="1">
          <mxGeometry x="60" y="240" width="70" height="140" as="geometry" />
        </mxCell>
        <mxCell id="daoPPE_rz8Ac2sAp1PtJ-25" value="Sistema" style="shape=umlActor;verticalLabelPosition=bottom;verticalAlign=top;html=1;outlineConnect=0;" parent="1" vertex="1">
          <mxGeometry x="1160" y="240" width="70" height="140" as="geometry" />
        </mxCell>
        <mxCell id="daoPPE_rz8Ac2sAp1PtJ-28" value="" style="endArrow=none;endSize=16;endFill=0;html=1;rounded=0;exitX=0;exitY=0.5;exitDx=0;exitDy=0;startFill=0;" parent="1" source="daoPPE_rz8Ac2sAp1PtJ-26" edge="1">
          <mxGeometry width="160" relative="1" as="geometry">
            <mxPoint x="304" y="420" as="sourcePoint" />
            <mxPoint x="130" y="290" as="targetPoint" />
            <Array as="points">
              <mxPoint x="240" y="280" />
            </Array>
          </mxGeometry>
        </mxCell>
        <mxCell id="DJht6jUn4mT10fJ4DEAq-9" value="" style="endArrow=none;endSize=16;endFill=0;html=1;rounded=0;startFill=0;exitX=0;exitY=0.5;exitDx=0;exitDy=0;entryX=1;entryY=0.3333333333333333;entryDx=0;entryDy=0;entryPerimeter=0;" edge="1" parent="1" source="daoPPE_rz8Ac2sAp1PtJ-15" target="daoPPE_rz8Ac2sAp1PtJ-24">
          <mxGeometry width="160" relative="1" as="geometry">
            <mxPoint x="579" y="984" as="sourcePoint" />
            <mxPoint x="160" y="900" as="targetPoint" />
            <Array as="points">
              <mxPoint x="220" y="890" />
            </Array>
          </mxGeometry>
        </mxCell>
      </root>
    </mxGraphModel>
  </diagram>
</mxfile>
